<svg width="600" height="485" viewBox="0 0 600 485" fill="none" xmlns="http://www.w3.org/2000/svg">
<g clip-path="url(#clip0_152_48)">
<path d="M461.416 25C462.432 25 463.448 25 464.496 25C465.594 26.5368 465.594 26.5368 466.677 28.531C468.62 31.4564 468.62 31.4564 471.762 32.7883C473.343 32.9041 474.928 32.9866 476.513 33.0371C480.124 33.3141 482.823 34.7175 486.053 36.2993C486.053 36.9773 486.053 37.6552 486.053 38.3537C486.731 38.3537 487.408 38.3537 488.106 38.3537C489.474 39.8544 489.474 39.8544 490.993 41.8206C493.54 44.897 495.411 46.6281 499.398 47.5986C500.414 47.5986 501.431 47.5986 502.478 47.5986C502.478 46.9207 502.478 46.2427 502.478 45.5442C506.673 46.2968 510.274 48.3039 514.027 50.2309C514.693 50.5692 515.36 50.9075 516.048 51.2561C517.685 52.0876 519.321 52.9243 520.956 53.7619C520.956 54.4399 520.956 55.1178 520.956 55.8163C521.633 55.8163 522.311 55.8163 523.009 55.8163C523.009 56.4943 523.009 57.1722 523.009 57.8707C524.703 57.8707 526.396 57.8707 528.142 57.8707C527.803 59.9046 527.464 61.9385 527.115 64.034C529.825 64.034 532.535 64.034 535.327 64.034C535.522 64.6921 535.716 65.3502 535.917 66.0282C537.268 68.4975 537.268 68.4975 540.544 68.8129C543.089 69.0076 545.634 69.2002 548.179 69.3908C552.529 70.3725 554.105 71.913 556.885 75.3333C557.847 77.9656 557.847 77.9656 557.911 80.4694C557.245 81.8478 556.559 83.217 555.858 84.5782C555.687 87.8314 555.687 87.8314 555.858 90.7415C557.851 90.4578 557.851 90.4578 559.965 89.7143C560.642 88.6973 561.32 87.6804 562.018 86.6326C565.226 85.9264 565.226 85.9264 568.177 85.6054C568.177 84.2495 568.177 82.8936 568.177 81.4966C572.242 82.0051 572.242 82.0051 576.389 82.5238C577.423 85.4882 578.383 88.2691 578.827 91.3835C579.685 94.6431 580.995 95.7788 583.575 97.932C586.672 99.0771 586.672 99.0771 589.991 99.7296C591.651 100.103 591.651 100.103 593.343 100.484C594.185 100.659 595.027 100.834 595.894 101.014C595.894 102.031 595.894 103.047 595.894 104.095C596.91 104.434 597.926 104.773 598.973 105.122C598.942 106.743 598.942 106.743 598.909 108.397C598.962 111.622 599.246 114.335 600 117.449C598.984 117.449 597.967 117.449 596.92 117.449C596.92 118.127 596.92 118.805 596.92 119.503C596.243 119.503 595.565 119.503 594.867 119.503C594.867 120.181 594.867 120.859 594.867 121.558C594.19 121.558 593.512 121.558 592.814 121.558C592.814 122.236 592.814 122.914 592.814 123.612C591.771 123.565 590.729 123.517 589.654 123.468C575.03 122.947 575.03 122.947 562.35 129.314C561.902 129.805 561.453 130.297 560.991 130.803C560.187 131.269 559.382 131.735 558.553 132.215C555.679 133.853 555.679 133.853 553.1 136.645C552.316 137.429 551.533 138.213 550.726 139.02C550.048 139.02 549.371 139.02 548.673 139.02C548.397 139.614 548.122 140.207 547.838 140.818C546.201 143.922 544.09 146.533 541.936 149.293C539.407 152.813 537.759 155.971 537.882 160.419C538.869 164.603 541.35 168.059 543.588 171.682C545.563 174.924 547.341 178.201 549.057 181.585C549.552 182.559 550.047 183.532 550.557 184.535C551.717 187.217 552.431 189.537 552.779 192.435C552.44 193.113 552.101 193.791 551.752 194.49C552.768 194.829 553.785 195.168 554.832 195.517C555.214 196.876 555.557 198.247 555.858 199.626C556.536 199.965 557.213 200.304 557.911 200.653C556.492 204.049 555.068 205.621 551.985 207.599C551.223 208.091 550.46 208.583 549.675 209.089C548.878 209.589 548.082 210.089 547.261 210.604C546.472 211.116 545.684 211.628 544.871 212.155C538.948 215.934 538.948 215.934 536.163 216.59C535.548 216.755 534.934 216.919 534.301 217.088C533.105 219.348 533.105 219.348 532.248 222.224C531.703 223.535 531.147 224.84 530.58 226.141C529.881 227.761 529.881 227.761 529.168 229.415C530.523 229.754 531.878 230.093 533.274 230.442C533.613 229.425 533.952 228.408 534.301 227.361C535.317 228.038 536.333 228.716 537.381 229.415C537.042 230.771 536.703 232.127 536.354 233.524C535.676 233.524 534.999 233.524 534.301 233.524C534.216 234.138 534.131 234.753 534.044 235.386C533.053 238.279 531.746 239.151 529.168 240.714C528.491 240.714 527.813 240.714 527.115 240.714C527.115 241.392 527.115 242.07 527.115 242.769C524.936 243.972 522.755 245.17 520.571 246.364C519.642 246.878 519.642 246.878 518.694 247.403C514.002 249.959 514.002 249.959 511.717 249.959C511.717 250.637 511.717 251.315 511.717 252.014C510.03 253.75 508.314 255.457 506.584 257.15C503.931 260.077 501.695 262.582 500.425 266.395C499.747 266.395 499.07 266.395 498.372 266.395C498.033 268.428 497.694 270.462 497.345 272.558C495.53 273.249 493.711 273.932 491.892 274.612C490.879 274.994 489.867 275.375 488.824 275.768C486.053 276.667 486.053 276.667 482.973 276.667C482.973 277.345 482.973 278.023 482.973 278.721C474.425 282.205 465.958 284.557 456.925 286.425C441.558 289.641 427.963 293.957 414.075 301.328C409.147 303.924 404.186 306.409 399.053 308.574C395.878 309.958 393.299 311.473 390.584 313.646C389.907 313.646 389.229 313.646 388.531 313.646C388.531 314.324 388.531 315.002 388.531 315.701C386.582 317.25 386.582 317.25 384.04 318.911C383.206 319.464 382.372 320.018 381.514 320.588C379.292 321.864 379.292 321.864 377.239 321.864C377.239 322.542 377.239 323.22 377.239 323.918C373.866 327.69 370.309 330.601 365.947 333.163C364.931 333.163 363.914 333.163 362.867 333.163C362.867 333.841 362.867 334.519 362.867 335.218C360.821 336.598 358.767 337.966 356.708 339.327C352.57 343.164 347.963 347.582 345.416 352.68C344.738 352.68 344.061 352.68 343.363 352.68C343.024 354.375 342.685 356.07 342.336 357.816C339.283 357.364 338.117 356.691 335.728 354.606C333.249 352.347 333.249 352.347 330.21 352.937C329.099 353.318 329.099 353.318 327.965 353.707C328.621 353.813 329.277 353.919 329.954 354.028C331.002 354.378 331.002 354.378 332.071 354.735C332.41 355.752 332.748 356.769 333.097 357.816C332.759 358.494 332.42 359.172 332.071 359.871C330.36 360.213 328.649 360.556 326.938 360.898C326.599 361.576 326.261 362.254 325.911 362.952C324.895 362.952 323.879 362.952 322.832 362.952C322.493 362.274 322.154 361.596 321.805 360.898C318.055 362.182 316.898 362.614 314.619 366.034C313.603 366.373 312.587 366.712 311.54 367.061C311.222 368.184 310.905 369.307 310.577 370.464C309.436 374.427 308.459 375.762 305.381 378.361C304.703 379.038 304.025 379.716 303.327 380.415C302.65 380.754 301.972 381.093 301.274 381.442C301.274 382.459 301.274 383.476 301.274 384.524C299.607 384.869 297.938 385.21 296.27 385.551C295.341 385.742 294.412 385.932 293.455 386.129C291.009 386.578 291.009 386.578 288.956 386.578C286.419 387.122 283.892 387.698 281.365 388.284C278.412 388.669 276.388 388.524 273.558 387.605C272.541 386.08 272.541 386.08 271.504 384.524C269.458 384.002 269.458 384.002 267.142 383.946C263.186 383.62 259.768 383.091 256.106 381.442C255.767 380.425 255.429 379.408 255.08 378.361C254.402 378.361 253.725 378.361 253.027 378.361C253.027 376.666 253.027 374.971 253.027 373.224C252.349 373.224 251.671 373.224 250.973 373.224C250.677 372.25 250.381 371.275 250.075 370.271C249.158 367.008 249.158 367.008 246.867 365.007C247.015 365.6 247.164 366.193 247.316 366.804C247.851 368.944 248.386 371.084 248.92 373.224C247.227 372.885 245.533 372.547 243.788 372.197C243.449 370.163 243.11 368.13 242.761 366.034C241.745 365.695 240.728 365.356 239.681 365.007C238.366 362.992 238.366 362.992 237.115 360.513C235.531 357.394 234.076 355.031 231.469 352.68C231.405 353.401 231.342 354.121 231.277 354.863C230.121 358.955 228.405 361.085 225.31 363.98C221.396 364.365 221.396 364.365 218.124 363.98C218.124 366.013 218.124 368.047 218.124 370.143C216.43 369.804 214.736 369.465 212.991 369.116C212.652 368.099 212.314 367.082 211.965 366.034C210.271 365.695 208.577 365.356 206.832 365.007C206.493 365.685 206.154 366.363 205.805 367.061C206.822 367.061 207.838 367.061 208.885 367.061C208.885 367.739 208.885 368.417 208.885 369.116C209.562 369.116 210.24 369.116 210.938 369.116C210.938 371.15 210.938 373.183 210.938 375.279C211.954 375.618 212.971 375.957 214.018 376.306C214.018 376.984 214.018 377.662 214.018 378.361C213.34 378.361 212.663 378.361 211.965 378.361C211.626 379.377 211.287 380.394 210.938 381.442C210.261 381.442 209.583 381.442 208.885 381.442C208.885 382.12 208.885 382.798 208.885 383.497C202.982 384.524 202.982 384.524 200.673 384.524C200.673 385.541 200.673 386.558 200.673 387.605C198.979 387.605 197.285 387.605 195.54 387.605C195.201 388.961 194.862 390.317 194.513 391.714C193.836 391.714 193.158 391.714 192.46 391.714C191.783 390.358 191.105 389.002 190.407 387.605C186.657 388.889 185.499 389.322 183.221 392.741C182.544 392.741 181.866 392.741 181.168 392.741C181.062 393.377 180.956 394.013 180.847 394.667C180.142 396.85 180.142 396.85 177.062 398.905C177.062 399.583 177.062 400.261 177.062 400.959C178.078 400.959 179.095 400.959 180.142 400.959C180.142 401.976 180.142 402.993 180.142 404.041C179.464 404.041 178.787 404.041 178.088 404.041C178.088 404.719 178.088 405.397 178.088 406.095C179.782 406.095 181.476 406.095 183.221 406.095C182.532 410.403 180.29 413.7 178.088 417.395C178.766 417.395 179.444 417.395 180.142 417.395C180.783 419.256 180.783 419.256 181.168 421.503C179.115 424.585 179.115 424.585 176.805 425.227C175.874 425.354 174.942 425.481 173.982 425.612C172.458 425.962 172.458 425.962 170.903 426.318C167.42 426.681 165.731 426.275 162.69 424.585C161.674 423.06 161.674 423.06 160.637 421.503C159.621 421.164 158.605 420.825 157.558 420.476C157.558 419.798 157.558 419.12 157.558 418.422C156.541 418.422 155.525 418.422 154.478 418.422C154.817 419.439 155.155 420.456 155.504 421.503C154.715 425.63 153.872 427.313 150.628 430.042C147.335 431.753 144.803 432.453 141.133 432.803C140.794 434.498 140.455 436.192 140.106 437.939C137.027 436.398 137.027 436.398 133.947 434.857C134.006 434.151 134.066 433.446 134.127 432.718C134.267 429.933 134.321 427.351 133.947 424.585C131.545 422.784 131.545 422.784 128.814 421.503C127.595 417.908 127.595 417.908 126.761 414.313C125.745 412.787 125.745 412.787 124.708 411.231C123.692 411.57 122.675 411.909 121.628 412.258C121.29 413.275 120.951 414.292 120.602 415.34C119.585 415.34 118.569 415.34 117.522 415.34C117.46 416.058 117.398 416.775 117.334 417.515C117.248 418.45 117.162 419.385 117.073 420.348C116.948 421.742 116.948 421.742 116.82 423.165C116.496 425.612 116.496 425.612 115.469 427.667C116.147 427.667 116.824 427.667 117.522 427.667C117.183 429.362 116.845 431.056 116.496 432.803C115.141 432.803 113.785 432.803 112.389 432.803C111.712 435.515 111.034 438.226 110.336 441.02C111.691 441.698 113.046 442.376 114.442 443.075C114.442 444.431 114.442 445.787 114.442 447.184C113.426 447.184 112.41 447.184 111.363 447.184C111.871 450.743 111.871 450.743 112.389 454.374C108.54 456.429 108.54 456.429 106.23 456.429C105.891 457.784 105.553 459.14 105.204 460.537C103.279 461.179 103.279 461.179 101.097 461.565C100.42 460.887 99.7423 460.209 99.0442 459.51C96.9206 458.85 96.9206 458.85 94.938 458.483C94.938 457.466 94.938 456.449 94.938 455.401C88.2114 454.248 88.2114 454.248 81.5929 455.401C80.9154 456.418 80.2379 457.435 79.5398 458.483C74.7322 461.757 69.5195 464.01 64.0574 465.93C59.6577 467.652 55.7417 470.25 51.823 472.864C50.9761 473.012 50.1292 473.161 49.2566 473.313C46.6451 473.62 46.6451 473.62 45.4672 475.424C42.6321 477.789 39.5159 477.56 35.9757 477.679C35.2895 477.714 34.6034 477.749 33.8965 477.785C29.2621 478.011 24.6388 478 20 478C20.3388 474.61 20.6775 471.22 21.0265 467.728C22.3816 467.389 23.7366 467.05 25.1327 466.701C27.2696 462.087 27.695 457.324 28.2124 452.32C28.8899 452.32 29.5674 452.32 30.2655 452.32C31.0594 446.047 31.0594 446.047 31.1637 439.736C31.3227 436.236 32.1537 434.47 34.3717 431.775C35.7267 431.775 37.0818 431.775 38.4779 431.775C38.4779 431.098 38.4779 430.42 38.4779 429.721C40.1717 429.382 41.8655 429.043 43.6106 428.694C43.6106 428.016 43.6106 427.338 43.6106 426.639C44.3159 426.488 45.0212 426.338 45.7479 426.182C51.7654 424.859 51.7654 424.859 55.8009 420.54C56.182 419.502 56.5631 418.464 56.9558 417.395C59.073 414.955 59.073 414.955 61.0619 413.286C61.7395 413.286 62.417 413.286 63.115 413.286C63.209 412.677 63.3029 412.067 63.3997 411.44C64.3185 408.637 65.5162 407.666 67.7987 405.838C68.4563 405.303 69.114 404.769 69.7916 404.217C70.2984 403.82 70.8053 403.423 71.3274 403.014C70.8233 402.562 70.3191 402.111 69.7996 401.645C68.2478 399.932 68.2478 399.932 68.0553 397.171C68.1506 395.995 68.1506 395.995 68.2478 394.796C69.6028 395.474 70.9579 396.152 72.354 396.85C72.9892 395.579 72.9892 395.579 73.6372 394.282C74.5264 393.011 74.5264 393.011 75.4336 391.714C76.7887 391.714 78.1437 391.714 79.5398 391.714C79.5398 391.036 79.5398 390.358 79.5398 389.66C81.5724 389.66 83.605 389.66 85.6991 389.66C85.7415 389.024 85.7838 388.389 85.8274 387.734C86.1238 387.013 86.4203 386.293 86.7257 385.551C89.8695 384.267 89.8695 384.267 92.885 383.497C92.9855 382.705 93.0861 381.913 93.1897 381.097C93.3432 380.067 93.4967 379.037 93.6549 377.975C93.7978 376.95 93.9407 375.926 94.0879 374.87C94.938 372.197 94.938 372.197 97.0713 370.809C98.0479 370.479 98.0479 370.479 99.0442 370.143C99.0866 368.829 99.1289 367.516 99.1726 366.162C99.1964 365.424 99.2202 364.685 99.2447 363.923C99.2324 361.68 99.2324 361.68 96.9911 359.871C96.8218 359.002 96.6524 358.133 96.4779 357.239C96.3085 356.412 96.1391 355.586 95.9646 354.735C95.2871 354.396 94.6096 354.057 93.9115 353.707C93.5312 351.019 93.289 348.449 93.1416 345.747C93.0847 345.01 93.0278 344.274 92.9692 343.516C92.7068 339.187 92.9543 336.014 94.938 332.136C93.9218 331.797 92.9055 331.458 91.8584 331.109C91.8584 329.753 91.8584 328.397 91.8584 327C92.8747 327 93.891 327 94.938 327C94.938 326.322 94.938 325.644 94.938 324.946C93.2442 324.946 91.5504 324.946 89.8053 324.946C87.7727 320.878 87.7727 320.878 85.6991 316.728C84.0053 316.728 82.3115 316.728 80.5664 316.728C80.7146 315.563 80.8628 314.397 81.0155 313.197C81.8812 305.499 82.2025 297.753 82.6195 290.02C80.2481 289.342 77.8768 288.664 75.4336 287.966C74.9255 285.424 74.9255 285.424 74.4071 282.83C72.3353 282.362 70.2635 281.894 68.1916 281.426C66.1947 280.775 66.1947 280.775 64.1416 278.721C62.8749 273.334 63.0937 269.48 65.1681 264.34C68.3471 261.258 68.3471 261.258 71.3274 261.258C71.6662 260.242 72.005 259.225 72.354 258.177C75.3072 258.615 76.5276 259.262 78.8341 261.258C82.1724 263.744 84.683 264.019 88.7788 264.34C88.7788 265.018 88.7788 265.696 88.7788 266.395C89.5198 266.352 90.2608 266.31 91.0243 266.266C94.1647 266.406 96.17 267.227 99.0442 268.449C99.8739 268.526 100.704 268.603 101.558 268.682C104.177 269.476 104.177 269.476 106.026 271.976C106.538 272.994 107.05 274.013 107.577 275.062C108.103 276.077 108.628 277.093 109.169 278.139C110.336 280.775 110.336 280.775 110.336 282.83C110.807 282.471 111.278 282.112 111.764 281.743C112.394 281.275 113.024 280.808 113.673 280.326C114.292 279.861 114.911 279.397 115.549 278.918C118.396 277.152 120.493 276.524 123.834 276.944C124.588 277.128 125.342 277.312 126.119 277.501C126.92 277.696 127.721 277.891 128.545 278.091C131.416 278.87 134.227 279.77 137.027 280.775C136.688 283.148 136.349 285.521 136 287.966C137.016 287.627 138.033 287.288 139.08 286.939C139.08 286.261 139.08 285.583 139.08 284.884C140.773 284.545 142.467 284.206 144.212 283.857C144.721 277.247 144.721 277.247 145.239 270.503C143.482 270.567 141.724 270.631 139.914 270.696C132.247 270.696 123.996 269.887 117.193 266.094C114.95 263.813 114.806 262.364 114.571 259.204C114.489 258.314 114.407 257.424 114.322 256.508C114.442 254.068 114.442 254.068 116.496 250.986C116.496 249.842 116.496 248.698 116.496 247.52C116.496 243.909 116.997 241.863 118.549 238.66C117.871 238.66 117.194 238.66 116.496 238.66C116.834 234.931 117.173 231.202 117.522 227.361C116.845 227.361 116.167 227.361 115.469 227.361C115.215 226.428 114.961 225.496 114.699 224.536C113.375 221.091 112.061 219.475 109.31 217.088C109.786 215.722 109.786 215.722 110.272 214.328C111.19 211.464 111.965 208.764 112.389 205.789C112.051 205.45 111.712 205.111 111.363 204.762C110.093 198.125 109.203 190.7 111.363 184.218C113.395 184.557 115.428 184.896 117.522 185.245C117.861 186.601 118.2 187.957 118.549 189.354C119.904 189.354 121.259 189.354 122.655 189.354C122.824 188.294 122.994 187.235 123.168 186.144C124.408 181.637 127.209 179.876 130.996 177.396C133.2 175.968 133.2 175.968 134.973 172.918C135.651 172.918 136.328 172.918 137.027 172.918C136.984 171.88 136.942 170.842 136.898 169.773C137.028 165.671 137.89 162.442 139.08 158.537C140.515 158.555 140.515 158.555 141.979 158.574C149.72 158.628 157.325 158.434 165.044 157.735C169.706 157.358 172.815 157.676 177.062 159.565C177.062 160.243 177.062 160.921 177.062 161.619C178.687 161.647 180.313 161.667 181.938 161.683C183.296 161.701 183.296 161.701 184.681 161.719C187.104 161.628 189.119 161.279 191.434 160.592C191.561 159.723 191.688 158.855 191.819 157.96C192.491 154.26 193.262 150.787 194.513 147.238C195.53 146.899 196.546 146.56 197.593 146.211C197.254 145.194 196.915 144.177 196.566 143.129C197.529 140.369 197.529 140.369 198.619 137.993C203.052 138.515 206.866 139.223 210.938 141.075C210.599 140.291 210.261 139.507 209.911 138.699C208.885 135.939 208.885 135.939 208.885 132.857C208.207 132.857 207.53 132.857 206.832 132.857C205.677 129.455 205.677 129.455 204.779 125.667C205.795 124.141 205.795 124.141 206.832 122.585C207.128 121.42 207.425 120.255 207.73 119.054C208.946 115.2 210.175 114.01 212.991 111.286C212.991 109.93 212.991 108.574 212.991 107.177C214.346 107.177 215.701 107.177 217.097 107.177C217.034 106.075 216.97 104.973 216.905 103.838C217.106 99.8149 217.347 98.6085 220.177 95.8775C222.551 94.4672 224.73 93.6739 227.363 92.7959C227.702 90.762 228.04 88.7282 228.389 86.6326C227.712 86.6326 227.034 86.6326 226.336 86.6326C224.068 83.2288 224.052 82.1698 224.155 78.2224C224.173 77.2968 224.192 76.3712 224.211 75.4176C224.235 74.7118 224.259 74.0061 224.283 73.2789C225.638 72.9399 226.993 72.6009 228.389 72.2517C227.712 71.9127 227.034 71.5737 226.336 71.2245C227.968 67.0795 229.706 62.9882 231.469 58.898C232.147 58.898 232.824 58.898 233.522 58.898C233.522 58.22 233.522 57.542 233.522 56.8435C237.752 54.7913 241.172 54.6059 245.841 54.7891C246.518 53.4332 247.196 52.0773 247.894 50.6803C248.91 50.6803 249.926 50.6803 250.973 50.6803C250.973 49.6633 250.973 48.6464 250.973 47.5986C251.99 47.5986 253.006 47.5986 254.053 47.5986C254.053 46.9207 254.053 46.2427 254.053 45.5442C261.167 44.5273 261.167 44.5273 268.425 43.4898C268.764 42.1339 269.102 40.778 269.451 39.381C269.793 38.0113 270.136 36.6417 270.478 35.2721C268.784 34.5941 267.09 33.9162 265.345 33.2177C265.345 31.8618 265.345 30.5059 265.345 29.1088C268.766 27.9678 269.192 28.1193 272.338 29.4298C274.993 30.5306 277.267 31.3034 280.102 31.9337C280.991 32.3574 281.88 32.7811 282.796 33.2177C283.209 34.9656 283.209 34.9656 283.631 36.7487C284.403 40.4775 284.403 40.4775 286.911 41.4915C288.539 41.9997 290.183 42.461 291.839 42.8679C294.088 43.4898 294.088 43.4898 297.168 45.5442C299.654 45.647 299.654 45.647 302.301 45.2874C303.19 45.1974 304.079 45.1073 304.996 45.0146C307.693 44.6238 307.693 44.6238 310.513 42.4626C311.53 42.4626 312.546 42.4626 313.593 42.4626C313.593 41.4456 313.593 40.4287 313.593 39.381C322.372 36.8798 330.283 37.4677 339.257 38.3537C339.257 37.6758 339.257 36.9978 339.257 36.2993C339.965 36.3232 340.673 36.347 341.402 36.3715C347.872 36.4959 353.547 35.9076 359.788 34.2449C363.963 33.25 367.811 33.1334 372.106 33.2177C372.212 34.3617 372.318 35.5058 372.427 36.6845C372.819 40.2718 373.793 43.1633 375.122 46.5072C376.156 49.7212 376.508 51.0462 375.114 54.1632C374.009 55.733 372.86 57.2724 371.669 58.7776C369.426 61.7966 368.775 64.4975 368 68.1429C370.033 68.4818 372.065 68.8208 374.159 69.1701C374.159 69.848 374.159 70.526 374.159 71.2245C375.684 70.716 375.684 70.716 377.239 70.1973C383.74 72.5941 383.74 72.5941 386.478 75.3333C387.092 74.1893 387.706 73.0452 388.338 71.8665C389.944 68.8741 390.686 68.075 393.664 66.0884C394.68 66.0884 395.696 66.0884 396.743 66.0884C396.743 65.4105 396.743 64.7325 396.743 64.034C401.633 62.4031 404.66 63.9824 409.062 66.0884C414.217 68.3458 418.81 69.4948 424.424 69.9284C426.513 70.1973 426.513 70.1973 429.336 71.4813C430.48 71.8626 430.48 71.8626 431.646 72.2517C434.269 70.9339 434.269 70.9339 436.779 69.1701C439.666 68.4639 439.666 68.4639 441.911 68.1429C442.25 69.8378 442.589 71.5327 442.938 73.2789C442.282 73.5331 441.625 73.7874 440.949 74.0493C438.639 75.1439 438.639 75.1439 438.062 77.5162C437.977 78.1517 437.893 78.7873 437.805 79.4422C442.986 80.8209 442.986 80.8209 447.862 79.394C449.344 78.0878 450.764 76.7134 452.177 75.3333C452.854 75.3333 453.532 75.3333 454.23 75.3333C454.356 74.7772 454.481 74.2211 454.611 73.6481C455.37 70.8004 456.354 68.0826 457.374 65.318C457.746 64.3064 458.118 63.2947 458.501 62.2524C458.785 61.4844 459.07 60.7164 459.363 59.9252C458.347 59.5862 457.33 59.2472 456.283 58.898C455.449 56.9719 455.449 56.9719 455.257 54.7891C455.934 53.7722 456.612 52.7552 457.31 51.7075C457.31 50.9448 457.31 50.1821 457.31 49.3963C457.31 45.8038 458.293 42.7918 459.363 39.381C458.706 39.2326 458.05 39.0843 457.374 38.9315C455.257 38.3537 455.257 38.3537 454.23 37.3265C454.188 35.2725 454.186 33.2172 454.23 31.1633C455.035 30.909 455.839 30.6548 456.668 30.3929C459.695 28.9508 460.289 28.0747 461.416 25Z" fill="#020202"/>
<path d="M246.867 365.007C247.552 367.746 248.236 370.485 248.92 373.224C247.227 372.885 245.533 372.546 243.788 372.197C243.661 371.201 243.534 370.206 243.403 369.18C243.191 368.142 242.979 367.103 242.761 366.034C242.084 365.695 241.406 365.356 240.708 365.007C243.265 363.727 244.209 364.209 246.867 365.007Z" fill="#4C4C4C"/>
<path d="M533.274 227.361C534.629 228.039 535.984 228.717 537.381 229.415C537.042 230.771 536.703 232.127 536.354 233.524C535.677 233.524 534.999 233.524 534.301 233.524C533.962 234.88 533.623 236.236 533.274 237.633C531.45 234.895 530.323 232.468 529.168 229.415C530.523 229.754 531.878 230.093 533.274 230.442C533.274 229.425 533.274 228.408 533.274 227.361Z" fill="#707070"/>
<path d="M114.443 425.612C114.781 426.29 115.12 426.968 115.469 427.667C116.147 427.667 116.824 427.667 117.522 427.667C117.183 429.362 116.845 431.057 116.496 432.803C115.141 432.803 113.786 432.803 112.389 432.803C112.051 433.481 111.712 434.159 111.363 434.857C111.17 431.39 111.17 431.39 111.363 427.667C112.379 426.989 113.395 426.311 114.443 425.612Z" fill="#515151"/>
<path d="M68.2477 394.796C69.9415 395.813 71.6353 396.83 73.3804 397.878C73.0417 399.233 72.7029 400.589 72.3539 401.986C73.0314 401.986 73.7089 401.986 74.407 401.986C74.0682 402.664 73.7294 403.342 73.3804 404.041C70.814 402.307 70.814 402.307 68.2477 399.932C67.9269 397.107 67.9269 397.107 68.2477 394.796Z" fill="black"/>
<path d="M498.372 269.476C498.033 270.493 497.694 271.51 497.345 272.558C491.442 271.787 491.442 271.787 489.133 269.476C492.283 267.9 494.985 268.911 498.372 269.476Z" fill="#686868"/>
<path d="M441.912 69.1702C442.25 70.5261 442.589 71.882 442.938 73.279C442.303 73.5332 441.668 73.7875 441.014 74.0494C438.472 75.5453 437.856 76.7491 436.779 79.4423C436.137 77.5805 436.137 77.5805 435.752 75.3334C436.43 74.3165 437.107 73.2996 437.806 72.2518C439.161 72.2518 440.516 72.2518 441.912 72.2518C441.912 71.2349 441.912 70.2179 441.912 69.1702Z" fill="#6F6F6F"/>
<path d="M540.46 203.735C540.46 204.752 540.46 205.768 540.46 206.816C538.428 207.494 536.395 208.172 534.301 208.871C534.64 207.515 534.978 206.159 535.327 204.762C537.021 204.423 538.715 204.084 540.46 203.735Z" fill="#0E0E0E"/>
<path d="M139.08 158.537C141.79 158.537 144.5 158.537 147.292 158.537C147.292 158.876 147.292 159.215 147.292 159.565C144.212 160.592 141.133 161.619 138.053 162.646C138.392 161.29 138.731 159.934 139.08 158.537Z" fill="#949494"/>
<path d="M534.301 221.197C534.978 221.197 535.656 221.197 536.354 221.197C536.354 222.553 536.354 223.909 536.354 225.306C535.676 225.306 534.999 225.306 534.301 225.306C534.301 223.95 534.301 222.594 534.301 221.197Z" fill="#A6A6A6"/>
<path d="M553.805 189.354C554.821 189.862 554.821 189.862 555.858 190.381C555.858 191.398 555.858 192.415 555.858 193.463C555.181 193.463 554.503 193.463 553.805 193.463C553.805 192.107 553.805 190.751 553.805 189.354Z" fill="#4D4D4D"/>
<path d="M557.912 196.544C558.928 196.544 559.944 196.544 560.991 196.544C560.991 197.222 560.991 197.9 560.991 198.599C559.636 198.26 558.281 197.921 556.885 197.571C557.224 197.232 557.563 196.893 557.912 196.544Z" fill="#666666"/>
</g>
<rect width="600" height="485" fill="#FCE239"/>
<g clip-path="url(#clip1_152_48)">
<path d="M457 28C457.99 28 458.98 28 460 28C461.07 29.4961 461.07 29.4961 462.125 31.4375C464.018 34.2854 464.018 34.2854 467.078 35.582C468.619 35.6947 470.163 35.7751 471.707 35.8242C475.224 36.0939 477.853 37.4601 481 39C481 39.66 481 40.32 481 41C481.66 41 482.32 41 483 41C484.332 42.4609 484.332 42.4609 485.812 44.375C488.293 47.37 490.116 49.0551 494 50C494.99 50 495.98 50 497 50C497 49.34 497 48.68 497 48C501.086 48.7327 504.595 50.6866 508.25 52.5625C508.9 52.8919 509.549 53.2212 510.219 53.5605C511.814 54.3701 513.407 55.1846 515 56C515 56.66 515 57.32 515 58C515.66 58 516.32 58 517 58C517 58.66 517 59.32 517 60C518.65 60 520.3 60 522 60C521.67 61.98 521.34 63.96 521 66C523.64 66 526.28 66 529 66C529.189 66.6407 529.379 67.2813 529.574 67.9414C530.891 70.3452 530.891 70.3452 534.082 70.6523C536.561 70.8418 539.04 71.0294 541.52 71.2148C545.756 72.1706 547.292 73.6702 550 77C550.938 79.5625 550.938 79.5625 551 82C550.351 83.3419 549.683 84.6748 549 86C548.833 89.167 548.833 89.167 549 92C550.941 91.7238 550.941 91.7238 553 91C553.66 90.01 554.32 89.02 555 88C558.125 87.3125 558.125 87.3125 561 87C561 85.68 561 84.36 561 83C564.96 83.495 564.96 83.495 569 84C570.007 86.8858 570.942 89.5931 571.375 92.625C572.21 95.7982 573.486 96.9039 576 99C579.017 100.115 579.017 100.115 582.25 100.75C583.866 101.114 583.866 101.114 585.516 101.484C586.335 101.655 587.155 101.825 588 102C588 102.99 588 103.98 588 105C588.99 105.33 589.98 105.66 591 106C590.969 107.578 590.969 107.578 590.938 109.188C590.989 112.327 591.265 114.969 592 118C591.01 118 590.02 118 589 118C589 118.66 589 119.32 589 120C588.34 120 587.68 120 587 120C587 120.66 587 121.32 587 122C586.34 122 585.68 122 585 122C585 122.66 585 123.32 585 124C583.984 123.954 582.968 123.907 581.922 123.859C567.676 123.353 567.676 123.353 555.324 129.551C554.887 130.029 554.45 130.507 554 131C553.216 131.454 552.433 131.907 551.625 132.375C548.825 133.97 548.825 133.97 546.312 136.688C545.549 137.451 544.786 138.214 544 139C543.34 139 542.68 139 542 139C541.732 139.577 541.464 140.155 541.188 140.75C539.592 143.772 537.536 146.314 535.438 149C532.974 152.427 531.368 155.501 531.488 159.832C532.45 163.905 534.867 167.269 537.047 170.797C538.971 173.952 540.703 177.142 542.375 180.438C542.857 181.385 543.339 182.332 543.836 183.309C544.966 185.92 545.661 188.178 546 191C545.67 191.66 545.34 192.32 545 193C545.99 193.33 546.98 193.66 548 194C548.372 195.323 548.706 196.657 549 198C549.66 198.33 550.32 198.66 551 199C549.618 202.306 548.23 203.836 545.227 205.762C544.484 206.241 543.742 206.719 542.977 207.213C542.201 207.7 541.425 208.186 540.625 208.688C539.857 209.186 539.088 209.684 538.297 210.197C532.527 213.876 532.527 213.876 529.814 214.515C529.215 214.675 528.617 214.835 528 215C526.835 217.199 526.835 217.199 526 220C525.469 221.275 524.927 222.546 524.375 223.812C523.694 225.39 523.694 225.39 523 227C524.32 227.33 525.64 227.66 527 228C527.33 227.01 527.66 226.02 528 225C528.99 225.66 529.98 226.32 531 227C530.67 228.32 530.34 229.64 530 231C529.34 231 528.68 231 528 231C527.917 231.598 527.835 232.196 527.75 232.812C526.784 235.629 525.511 236.478 523 238C522.34 238 521.68 238 521 238C521 238.66 521 239.32 521 240C518.878 241.172 516.752 242.338 514.625 243.5C513.72 244.001 513.72 244.001 512.797 244.512C508.227 247 508.227 247 506 247C506 247.66 506 248.32 506 249C504.357 250.69 502.685 252.352 501 254C498.415 256.85 496.237 259.289 495 263C494.34 263 493.68 263 493 263C492.67 264.98 492.34 266.96 492 269C490.231 269.673 488.46 270.338 486.688 271C485.701 271.371 484.715 271.743 483.699 272.125C481 273 481 273 478 273C478 273.66 478 274.32 478 275C469.673 278.391 461.425 280.682 452.625 282.5C437.656 285.631 424.412 289.832 410.884 297.009C406.083 299.535 401.25 301.955 396.25 304.062C393.157 305.409 390.645 306.884 388 309C387.34 309 386.68 309 386 309C386 309.66 386 310.32 386 311C384.102 312.508 384.102 312.508 381.625 314.125C380.813 314.664 380.001 315.203 379.164 315.758C377 317 377 317 375 317C375 317.66 375 318.32 375 319C371.714 322.672 368.249 325.506 364 328C363.01 328 362.02 328 361 328C361 328.66 361 329.32 361 330C359.007 331.344 357.006 332.675 355 334C350.969 337.736 346.482 342.037 344 347C343.34 347 342.68 347 342 347C341.67 348.65 341.34 350.3 341 352C338.025 351.559 336.89 350.904 334.562 348.875C332.147 346.675 332.147 346.675 329.188 347.25C328.105 347.621 328.105 347.621 327 348C327.639 348.103 328.279 348.206 328.938 348.312C329.958 348.653 329.958 348.653 331 349C331.33 349.99 331.66 350.98 332 352C331.67 352.66 331.34 353.32 331 354C329.333 354.333 327.667 354.667 326 355C325.67 355.66 325.34 356.32 325 357C324.01 357 323.02 357 322 357C321.67 356.34 321.34 355.68 321 355C317.347 356.25 316.219 356.671 314 360C313.01 360.33 312.02 360.66 311 361C310.691 362.093 310.381 363.186 310.062 364.312C308.951 368.171 307.998 369.47 305 372C304.34 372.66 303.68 373.32 303 374C302.34 374.33 301.68 374.66 301 375C301 375.99 301 376.98 301 378C299.375 378.336 297.75 378.668 296.125 379C295.22 379.186 294.315 379.371 293.383 379.562C291 380 291 380 289 380C286.529 380.529 284.067 381.09 281.605 381.66C278.729 382.035 276.758 381.894 274 381C273.01 379.515 273.01 379.515 272 378C270.006 377.492 270.006 377.492 267.75 377.438C263.897 377.121 260.568 376.605 257 375C256.67 374.01 256.34 373.02 256 372C255.34 372 254.68 372 254 372C254 370.35 254 368.7 254 367C253.34 367 252.68 367 252 367C251.711 366.051 251.423 365.103 251.125 364.125C250.232 360.948 250.232 360.948 248 359C248.144 359.577 248.289 360.155 248.438 360.75C248.958 362.833 249.479 364.917 250 367C248.35 366.67 246.7 366.34 245 366C244.67 364.02 244.34 362.04 244 360C243.01 359.67 242.02 359.34 241 359C239.719 357.039 239.719 357.039 238.5 354.625C236.957 351.589 235.539 349.288 233 347C232.938 347.701 232.876 348.402 232.812 349.125C231.687 353.108 230.015 355.182 227 358C223.188 358.375 223.188 358.375 220 358C220 359.98 220 361.96 220 364C218.35 363.67 216.7 363.34 215 363C214.67 362.01 214.34 361.02 214 360C212.35 359.67 210.7 359.34 209 359C208.67 359.66 208.34 360.32 208 361C208.99 361 209.98 361 211 361C211 361.66 211 362.32 211 363C211.66 363 212.32 363 213 363C213 364.98 213 366.96 213 369C213.99 369.33 214.98 369.66 216 370C216 370.66 216 371.32 216 372C215.34 372 214.68 372 214 372C213.67 372.99 213.34 373.98 213 375C212.34 375 211.68 375 211 375C211 375.66 211 376.32 211 377C205.25 378 205.25 378 203 378C203 378.99 203 379.98 203 381C201.35 381 199.7 381 198 381C197.67 382.32 197.34 383.64 197 385C196.34 385 195.68 385 195 385C194.34 383.68 193.68 382.36 193 381C189.347 382.25 188.219 382.671 186 386C185.34 386 184.68 386 184 386C183.897 386.619 183.794 387.238 183.688 387.875C183 390 183 390 180 392C180 392.66 180 393.32 180 394C180.99 394 181.98 394 183 394C183 394.99 183 395.98 183 397C182.34 397 181.68 397 181 397C181 397.66 181 398.32 181 399C182.65 399 184.3 399 186 399C185.329 403.194 183.144 406.403 181 410C181.66 410 182.32 410 183 410C183.625 411.812 183.625 411.812 184 414C182 417 182 417 179.75 417.625C178.842 417.749 177.935 417.873 177 418C175.515 418.34 175.515 418.34 174 418.688C170.608 419.041 168.962 418.645 166 417C165.01 415.515 165.01 415.515 164 414C163.01 413.67 162.02 413.34 161 413C161 412.34 161 411.68 161 411C160.01 411 159.02 411 158 411C158.33 411.99 158.66 412.98 159 414C158.231 418.018 157.41 419.655 154.25 422.312C151.042 423.978 148.575 424.659 145 425C144.67 426.65 144.34 428.3 144 430C141 428.5 141 428.5 138 427C138.058 426.313 138.116 425.626 138.176 424.918C138.312 422.206 138.364 419.693 138 417C135.661 415.246 135.661 415.246 133 414C131.812 410.5 131.812 410.5 131 407C130.01 405.515 130.01 405.515 129 404C128.01 404.33 127.02 404.66 126 405C125.67 405.99 125.34 406.98 125 408C124.01 408 123.02 408 122 408C121.939 408.699 121.879 409.397 121.816 410.117C121.733 411.027 121.649 411.937 121.562 412.875C121.441 414.232 121.441 414.232 121.316 415.617C121 418 121 418 120 420C120.66 420 121.32 420 122 420C121.67 421.65 121.34 423.3 121 425C119.68 425 118.36 425 117 425C116.34 427.64 115.68 430.28 115 433C116.32 433.66 117.64 434.32 119 435C119 436.32 119 437.64 119 439C118.01 439 117.02 439 116 439C116.495 442.465 116.495 442.465 117 446C113.25 448 113.25 448 111 448C110.67 449.32 110.34 450.64 110 452C108.125 452.625 108.125 452.625 106 453C105.34 452.34 104.68 451.68 104 451C101.931 450.357 101.931 450.357 100 450C100 449.01 100 448.02 100 447C93.4474 445.878 93.4474 445.878 87 447C86.34 447.99 85.68 448.98 85 450C80.3168 453.187 75.2389 455.381 69.918 457.25C65.6321 458.926 61.8173 461.455 58 464C57.175 464.144 56.35 464.289 55.5 464.438C52.956 464.736 52.956 464.736 51.8086 466.492C49.0468 468.795 46.0112 468.572 42.5625 468.688C41.8941 468.722 41.2257 468.756 40.5371 468.791C36.0226 469.01 31.5188 469 27 469C27.33 465.7 27.66 462.4 28 459C29.32 458.67 30.64 458.34 32 458C34.0816 453.508 34.496 448.872 35 444C35.66 444 36.32 444 37 444C37.7734 437.894 37.7734 437.894 37.875 431.75C38.0299 428.342 38.8394 426.624 41 424C42.32 424 43.64 424 45 424C45 423.34 45 422.68 45 422C46.65 421.67 48.3 421.34 50 421C50 420.34 50 419.68 50 419C50.6871 418.853 51.3741 418.706 52.082 418.555C57.9439 417.267 57.9439 417.267 61.875 413.062C62.2463 412.052 62.6175 411.041 63 410C65.0625 407.625 65.0625 407.625 67 406C67.66 406 68.32 406 69 406C69.0915 405.407 69.183 404.814 69.2773 404.203C70.1723 401.475 71.3391 400.529 73.5625 398.75C74.2032 398.229 74.8438 397.708 75.5039 397.172C75.9976 396.785 76.4913 396.398 77 396C76.5089 395.56 76.0177 395.121 75.5117 394.668C74 393 74 393 73.8125 390.312C73.9053 389.168 73.9053 389.168 74 388C75.32 388.66 76.64 389.32 78 390C78.6187 388.763 78.6187 388.763 79.25 387.5C80.1162 386.263 80.1162 386.263 81 385C82.32 385 83.64 385 85 385C85 384.34 85 383.68 85 383C86.98 383 88.96 383 91 383C91.0413 382.381 91.0825 381.762 91.125 381.125C91.4137 380.424 91.7025 379.723 92 379C95.0625 377.75 95.0625 377.75 98 377C98.098 376.229 98.1959 375.458 98.2969 374.664C98.4464 373.661 98.5959 372.658 98.75 371.625C98.8892 370.627 99.0284 369.63 99.1719 368.602C100 366 100 366 102.078 364.648C103.029 364.327 103.029 364.327 104 364C104.041 362.721 104.082 361.442 104.125 360.125C104.148 359.406 104.171 358.686 104.195 357.945C104.183 355.761 104.183 355.761 102 354C101.835 353.154 101.67 352.309 101.5 351.438C101.335 350.633 101.17 349.829 101 349C100.34 348.67 99.68 348.34 99 348C98.6296 345.383 98.3936 342.881 98.25 340.25C98.1946 339.533 98.1391 338.817 98.082 338.078C97.8264 333.864 98.0676 330.776 100 327C99.01 326.67 98.02 326.34 97 326C97 324.68 97 323.36 97 322C97.99 322 98.98 322 100 322C100 321.34 100 320.68 100 320C98.35 320 96.7 320 95 320C93.02 316.04 93.02 316.04 91 312C89.35 312 87.7 312 86 312C86.1444 310.866 86.2887 309.731 86.4375 308.562C87.2808 301.069 87.5938 293.527 88 286C85.69 285.34 83.38 284.68 81 284C80.505 281.525 80.505 281.525 80 279C77.9818 278.544 75.9635 278.089 73.9453 277.633C72 277 72 277 70 275C68.7661 269.756 68.9792 266.004 71 261C74.0968 258 74.0968 258 77 258C77.33 257.01 77.66 256.02 78 255C80.8769 255.426 82.0657 256.057 84.3125 258C87.5645 260.42 90.0102 260.687 94 261C94 261.66 94 262.32 94 263C94.7219 262.959 95.4438 262.918 96.1875 262.875C99.2467 263.011 101.2 263.81 104 265C104.808 265.075 105.616 265.15 106.449 265.227C109 266 109 266 110.801 268.434C111.3 269.425 111.799 270.416 112.312 271.438C112.824 272.426 113.336 273.415 113.863 274.434C115 277 115 277 115 279C115.459 278.651 115.918 278.301 116.391 277.941C117.004 277.486 117.618 277.031 118.25 276.562C118.853 276.11 119.457 275.658 120.078 275.191C122.852 273.472 124.894 272.861 128.148 273.27C128.883 273.449 129.618 273.628 130.375 273.812C131.155 274.002 131.935 274.191 132.738 274.387C135.535 275.145 138.273 276.021 141 277C140.67 279.31 140.34 281.62 140 284C140.99 283.67 141.98 283.34 143 283C143 282.34 143 281.68 143 281C144.65 280.67 146.3 280.34 148 280C148.495 273.565 148.495 273.565 149 267C147.288 267.062 145.576 267.124 143.812 267.188C136.344 267.188 128.306 266.4 121.68 262.707C119.495 260.487 119.354 259.076 119.125 256C119.045 255.134 118.965 254.267 118.883 253.375C119 251 119 251 121 248C121 246.886 121 245.773 121 244.625C121 241.11 121.488 239.118 123 236C122.34 236 121.68 236 121 236C121.33 232.37 121.66 228.74 122 225C121.34 225 120.68 225 120 225C119.752 224.092 119.505 223.185 119.25 222.25C117.96 218.896 116.68 217.323 114 215C114.464 213.67 114.464 213.67 114.938 212.312C115.832 209.524 116.586 206.896 117 204C116.67 203.67 116.34 203.34 116 203C114.763 196.538 113.896 189.311 116 183C117.98 183.33 119.96 183.66 122 184C122.33 185.32 122.66 186.64 123 188C124.32 188 125.64 188 127 188C127.165 186.969 127.33 185.938 127.5 184.875C128.708 180.487 131.436 178.773 135.125 176.359C137.272 174.968 137.272 174.968 139 172C139.66 172 140.32 172 141 172C140.959 170.989 140.918 169.979 140.875 168.938C141.002 164.945 141.841 161.801 143 158C144.398 158.017 144.398 158.017 145.824 158.035C153.366 158.089 160.773 157.9 168.293 157.219C172.834 156.852 175.863 157.161 180 159C180 159.66 180 160.32 180 161C181.583 161.027 183.167 161.046 184.75 161.062C186.073 161.08 186.073 161.08 187.422 161.098C189.782 161.008 191.745 160.669 194 160C194.124 159.154 194.248 158.309 194.375 157.438C195.03 153.836 195.781 150.455 197 147C197.99 146.67 198.98 146.34 200 146C199.67 145.01 199.34 144.02 199 143C199.938 140.312 199.938 140.312 201 138C205.318 138.508 209.033 139.197 213 141C212.67 140.237 212.34 139.474 212 138.688C211 136 211 136 211 133C210.34 133 209.68 133 209 133C207.875 129.688 207.875 129.688 207 126C207.99 124.515 207.99 124.515 209 123C209.289 121.866 209.577 120.731 209.875 119.562C211.06 115.811 212.256 114.652 215 112C215 110.68 215 109.36 215 108C216.32 108 217.64 108 219 108C218.938 106.928 218.876 105.855 218.812 104.75C219.008 100.833 219.243 99.6586 222 97C224.312 95.627 226.436 94.8548 229 94C229.33 92.02 229.66 90.04 230 88C229.34 88 228.68 88 228 88C225.791 84.6863 225.775 83.6554 225.875 79.8125C225.893 78.9114 225.911 78.0104 225.93 77.082C225.953 76.395 225.976 75.7079 226 75C227.32 74.67 228.64 74.34 230 74C229.34 73.67 228.68 73.34 228 73C229.59 68.9648 231.282 64.9819 233 61C233.66 61 234.32 61 235 61C235 60.34 235 59.68 235 59C239.121 57.0021 242.452 56.8216 247 57C247.66 55.68 248.32 54.36 249 53C249.99 53 250.98 53 252 53C252 52.01 252 51.02 252 50C252.99 50 253.98 50 255 50C255 49.34 255 48.68 255 48C261.93 47.01 261.93 47.01 269 46C269.33 44.68 269.66 43.36 270 42C270.333 40.6667 270.667 39.3333 271 38C269.35 37.34 267.7 36.68 266 36C266 34.68 266 33.36 266 32C269.332 30.8892 269.747 31.0367 272.812 32.3125C275.399 33.3841 277.614 34.1364 280.375 34.75C281.241 35.1625 282.108 35.575 283 36C283.402 37.7016 283.402 37.7016 283.812 39.4375C284.565 43.0675 284.565 43.0675 287.008 44.0547C288.594 44.5494 290.195 44.9985 291.809 45.3945C294 46 294 46 297 48C299.422 48.1001 299.422 48.1001 302 47.75C302.866 47.6623 303.733 47.5747 304.625 47.4844C307.253 47.104 307.253 47.104 310 45C310.99 45 311.98 45 313 45C313 44.01 313 43.02 313 42C321.552 39.5651 329.258 40.1375 338 41C338 40.34 338 39.68 338 39C338.69 39.0232 339.379 39.0464 340.09 39.0703C346.392 39.1913 351.921 38.6187 358 37C362.068 36.0315 365.816 35.918 370 36C370.103 37.1137 370.206 38.2275 370.312 39.375C370.694 42.8673 371.644 45.6822 372.938 48.9375C373.945 52.0663 374.288 53.3563 372.93 56.3906C371.854 57.9188 370.734 59.4175 369.574 60.8828C367.389 63.8218 366.755 66.4512 366 70C367.98 70.33 369.96 70.66 372 71C372 71.66 372 72.32 372 73C373.485 72.505 373.485 72.505 375 72C381.333 74.3333 381.333 74.3333 384 77C384.598 75.8863 385.196 74.7725 385.812 73.625C387.377 70.7119 388.099 69.934 391 68C391.99 68 392.98 68 394 68C394 67.34 394 66.68 394 66C398.763 64.4123 401.712 65.9498 406 68C411.022 70.1976 415.496 71.3162 420.965 71.7383C423 72 423 72 425.75 73.25C426.864 73.6213 426.864 73.6213 428 74C430.555 72.7171 430.555 72.7171 433 71C435.812 70.3125 435.812 70.3125 438 70C438.33 71.65 438.66 73.3 439 75C438.361 75.2475 437.721 75.495 437.062 75.75C434.813 76.8156 434.813 76.8156 434.25 79.125C434.167 79.7437 434.085 80.3625 434 81C439.047 82.3422 439.047 82.3422 443.797 80.9531C445.24 79.6815 446.624 78.3435 448 77C448.66 77 449.32 77 450 77C450.122 76.4586 450.245 75.9172 450.371 75.3594C451.11 72.5871 452.069 69.9414 453.062 67.25C453.425 66.2652 453.787 65.2803 454.16 64.2656C454.437 63.518 454.714 62.7703 455 62C454.01 61.67 453.02 61.34 452 61C451.188 59.125 451.188 59.125 451 57C451.66 56.01 452.32 55.02 453 54C453 53.2575 453 52.515 453 51.75C453 48.2527 453.958 45.3205 455 42C454.361 41.8556 453.721 41.7113 453.062 41.5625C451 41 451 41 450 40C449.959 38.0004 449.957 35.9995 450 34C450.784 33.7525 451.567 33.505 452.375 33.25C455.323 31.8461 455.902 30.9932 457 28Z" fill="#020202"/>
<path d="M248 359C248.667 361.667 249.333 364.333 250 367C248.35 366.67 246.7 366.34 245 366C244.876 365.031 244.752 364.061 244.625 363.062C244.419 362.052 244.213 361.041 244 360C243.34 359.67 242.68 359.34 242 359C244.491 357.754 245.411 358.223 248 359Z" fill="#4C4C4C"/>
<path d="M527 225C528.32 225.66 529.64 226.32 531 227C530.67 228.32 530.34 229.64 530 231C529.34 231 528.68 231 528 231C527.67 232.32 527.34 233.64 527 235C525.223 232.334 524.125 229.972 523 227C524.32 227.33 525.64 227.66 527 228C527 227.01 527 226.02 527 225Z" fill="#707070"/>
<path d="M119 418C119.33 418.66 119.66 419.32 120 420C120.66 420 121.32 420 122 420C121.67 421.65 121.34 423.3 121 425C119.68 425 118.36 425 117 425C116.67 425.66 116.34 426.32 116 427C115.812 423.625 115.812 423.625 116 420C116.99 419.34 117.98 418.68 119 418Z" fill="#515151"/>
<path d="M74 388C75.65 388.99 77.3 389.98 79 391C78.67 392.32 78.34 393.64 78 395C78.66 395 79.32 395 80 395C79.67 395.66 79.34 396.32 79 397C76.5 395.312 76.5 395.312 74 393C73.6875 390.25 73.6875 390.25 74 388Z" fill="black"/>
<path d="M493 266C492.67 266.99 492.34 267.98 492 269C486.25 268.25 486.25 268.25 484 266C487.069 264.466 489.701 265.45 493 266Z" fill="#686868"/>
<path d="M438 71C438.33 72.32 438.66 73.64 439 75C438.381 75.2475 437.762 75.495 437.125 75.75C434.649 77.2063 434.049 78.3781 433 81C432.375 79.1875 432.375 79.1875 432 77C432.66 76.01 433.32 75.02 434 74C435.32 74 436.64 74 438 74C438 73.01 438 72.02 438 71Z" fill="#6F6F6F"/>
<path d="M534 202C534 202.99 534 203.98 534 205C532.02 205.66 530.04 206.32 528 207C528.33 205.68 528.66 204.36 529 203C530.65 202.67 532.3 202.34 534 202Z" fill="#0E0E0E"/>
<path d="M143 158C145.64 158 148.28 158 151 158C151 158.33 151 158.66 151 159C148 160 145 161 142 162C142.33 160.68 142.66 159.36 143 158Z" fill="#949494"/>
<path d="M528 219C528.66 219 529.32 219 530 219C530 220.32 530 221.64 530 223C529.34 223 528.68 223 528 223C528 221.68 528 220.36 528 219Z" fill="#A6A6A6"/>
<path d="M547 188C547.99 188.495 547.99 188.495 549 189C549 189.99 549 190.98 549 192C548.34 192 547.68 192 547 192C547 190.68 547 189.36 547 188Z" fill="#4D4D4D"/>
<path d="M551 195C551.99 195 552.98 195 554 195C554 195.66 554 196.32 554 197C552.68 196.67 551.36 196.34 550 196C550.33 195.67 550.66 195.34 551 195Z" fill="#666666"/>
</g>
<defs>
<clipPath id="clip0_152_48">
<rect width="580" height="453" fill="white" transform="translate(20 25)"/>
</clipPath>
<clipPath id="clip1_152_48">
<rect width="565" height="441" fill="white" transform="translate(27 28)"/>
</clipPath>
</defs>
</svg>
